<?xml version="1.0" encoding="utf-8"?>
<!-- Generator: Adobe Illustrator 22.0.1, SVG Export Plug-In . SVG Version: 6.00 Build 0)  -->
<svg version="1.1" id="图层_1" xmlns="http://www.w3.org/2000/svg" xmlns:xlink="http://www.w3.org/1999/xlink" x="0px" y="0px"
	 viewBox="0 0 340 32" style="enable-background:new 0 0 340 32;" xml:space="preserve">
<style type="text/css">
	.st0{fill:#5C4D93;}
	.st1{fill:#5ACFCE;}
	.st2{fill:#319694;}
	.st3{fill:#42AEAD;}
</style>
<g>
	<g>
		<path class="st0" d="M31.5,9.7h1.9l1.4,2.4v1.1h0.7h6.3h0.3v-0.8v-0.4h0c0,0-0.9,0-1.6-1.1c0,0,0,0,0,0c0,0,0,0,0-0.1
			c0-0.1-0.1-0.1-0.1-0.2c0,0,0,0,0,0l-0.6-1h0l-2.5-4.3h-5.6V9.7z"/>
		<path class="st0" d="M30.9,28.5C30.9,28.5,30.9,28.5,30.9,28.5l0-1.1h-5.4v1.1c0,0,0,0,0,0c0,2-1.3,2.3-2.2,2.3l2.2,0v0h-2.2v1.2
			h9.7v-1.2h-2.2v0l2.2,0C32.2,30.8,30.9,30.4,30.9,28.5z"/>
		<path class="st0" d="M41.9,19.8v-0.8h-0.3h-6.3h-0.7v1.1l-1.4,2.4h-2.4v-18V3.7c0,0,0,0,0,0c0-1.3,0.4-2.3,1.3-2.3h0v0V0.3h-1.3v0
			h-5.4v0h-1.3v1.2v0h0c0.9,0,1.3,1,1.3,2.3c0,0,0,0,0,0v1.7h-7.2V3.7c0,0,0,0,0,0c0-1.3,0.4-2.3,1.3-2.3h0v0V0.3h-1.3v0h-5.4v0
			h-1.3v1.2v0h0c0.9,0,1.3,1,1.3,2.3c0,0,0,0,0,0v1.7H6.7L6.2,6.2l-2,3.5l-1.6,2.8h0l-2.1,3.6l2.1,3.7h0l1.6,2.8l2,3.5l0.5,0.8h5.6
			v-4.3h-1.9l-3.7-6.4l3.7-6.4h15.1V14h-7.2v-3.7h-5.4v18.2c0,0,0,0,0,0c0,2-1.3,2.3-2.2,2.3l2.2,0v0h-2.2v1.2h9.7v-1.2h-2.2v0
			l2.2,0c-0.9,0-2.2-0.3-2.2-2.3c0,0,0,0,0,0v-1.7h18.8l2.5-4.3h0l0.6-1c0,0,0,0,0,0c0-0.1,0.1-0.1,0.1-0.2c0,0,0,0,0-0.1
			c0,0,0,0,0.1-0.1c0.7-1,1.5-1,1.5-1h0V19.8z M25.5,22.5h-7.2v-4.3h7.2V22.5z"/>
	</g>
	<g>
		<path class="st0" d="M58.8,23.8v-1c1.5,0,2.3-0.5,2.3-1.4v-4.7c-0.2-0.1-0.4-0.1-0.6-0.2c-0.3-0.1-0.6-0.1-1-0.1h-2.8
			c-0.6,0-1.1,0.1-1.5,0.3v4.7c0,0.9,0.7,1.4,2.1,1.4v1h-8.4v-1c1.6,0,2.4-0.5,2.4-1.4V11.2c0-1.2-0.8-1.8-2.4-1.8v-1h8.4v1
			c-1.4,0-2.1,0.6-2.1,1.8V15c0.2,0.1,0.5,0.1,0.7,0.2c0.2,0,0.5,0,0.8,0h2.8c0.8,0,1.4-0.1,1.6-0.2v-3.8c0-1.2-0.8-1.8-2.3-1.8v-1
			h8.3v1c-1.4,0-2.1,0.6-2.1,1.8v10.2c0,0.9,0.7,1.4,2.1,1.4v1H58.8z"/>
		<path class="st0" d="M77,21.7c-0.2,0.5-0.4,0.8-0.7,1.1c-0.3,0.3-0.6,0.6-1,0.8c-0.4,0.2-0.8,0.4-1.2,0.5
			c-0.4,0.1-0.8,0.1-1.2,0.1c-0.7,0-1.4-0.1-1.9-0.3c-0.6-0.2-1.1-0.5-1.5-1c-0.4-0.4-0.8-0.9-1-1.6S68,20,68,19.2
			c0-1.7,0.5-3.1,1.5-4c1-0.9,2.4-1.4,4.1-1.4c0.4,0,0.8,0.1,1.1,0.2c0.4,0.1,0.7,0.3,1,0.5c0.3,0.2,0.5,0.4,0.7,0.7
			c0.2,0.3,0.3,0.6,0.3,0.9c0,0.3-0.1,0.6-0.4,0.9c-0.3,0.2-0.6,0.4-1,0.4c-0.7,0-1.1-0.4-1.1-1.1c0-0.1,0-0.2,0-0.3
			c0-0.1,0-0.3,0-0.4c0-0.2-0.1-0.4-0.4-0.5c-0.3-0.1-0.5-0.2-0.8-0.2c-0.4,0-0.7,0.1-1,0.3c-0.3,0.2-0.4,0.5-0.6,0.9
			c-0.1,0.4-0.2,0.7-0.3,1.2c0,0.4-0.1,0.9-0.1,1.3c0,0.6,0,1.1,0.1,1.6c0.1,0.5,0.2,0.9,0.4,1.3c0.2,0.4,0.4,0.7,0.7,0.9
			c0.3,0.2,0.7,0.3,1.2,0.3c1,0,1.8-0.5,2.4-1.4L77,21.7z"/>
		<path class="st0" d="M88.6,22.6c-0.1,0.5-0.5,0.8-0.9,1.1c-0.5,0.2-1,0.3-1.5,0.3c-0.5,0-0.9-0.1-1.3-0.3c-0.4-0.2-0.7-0.6-0.9-1
			c-0.5,0.4-1,0.7-1.4,1C82.1,23.9,81.6,24,81,24c-0.8,0-1.5-0.2-2.1-0.6c-0.6-0.4-0.8-0.9-0.8-1.6c0-0.6,0.1-1.1,0.4-1.5
			c0.2-0.4,0.6-0.8,1.1-1.1c0.5-0.3,1.1-0.6,1.8-0.8c0.7-0.2,1.5-0.4,2.5-0.6v-0.7c0-0.7-0.1-1.2-0.2-1.6c-0.1-0.3-0.4-0.5-1-0.5
			c-0.5,0-0.9,0.1-1.3,0.2c-0.4,0.1-0.6,0.4-0.6,0.8c0.1,0.1,0.1,0.2,0.2,0.3c0,0.1,0.1,0.3,0.1,0.4c0,0.7-0.4,1-1.3,1
			c-0.7,0-1-0.4-1-1.2c0-0.4,0.1-0.7,0.2-1.1c0.2-0.3,0.4-0.6,0.8-0.9c0.3-0.2,0.8-0.4,1.3-0.6c0.6-0.1,1.2-0.2,2-0.2
			c0.5,0,1,0.1,1.4,0.2c0.5,0.1,0.9,0.3,1.2,0.6c0.4,0.3,0.6,0.6,0.9,1c0.2,0.4,0.3,0.9,0.3,1.5v4.9c0,0.5,0.2,0.7,0.6,0.7
			c0.1,0,0.2,0,0.3-0.1c0.1-0.1,0.2-0.1,0.4-0.2L88.6,22.6z M83.8,18.9c-0.9,0.1-1.6,0.4-2,0.7c-0.4,0.3-0.7,0.9-0.7,1.7
			c0,0.5,0.1,0.9,0.2,1.1c0.1,0.2,0.4,0.4,0.9,0.4c0.4,0,0.7-0.1,0.9-0.2c0.2-0.1,0.4-0.3,0.4-0.5c0.1-0.2,0.1-0.4,0.1-0.7
			c0-0.3,0-0.5,0.1-0.8V18.9z"/>
		<path class="st0" d="M95.6,17.2c-0.3-0.8-0.7-1.4-1.2-1.8C94,15,93.5,14.8,93,14.8c-0.2,0-0.4,0-0.7,0.1c-0.2,0-0.4,0.1-0.6,0.2
			s-0.3,0.2-0.4,0.4c-0.1,0.2-0.2,0.4-0.2,0.6c0,0.2,0.1,0.4,0.4,0.6c0.2,0.2,0.5,0.3,0.8,0.5c0.3,0.1,0.7,0.2,1,0.3
			c0.3,0.1,0.6,0.2,0.8,0.2c0.3,0.1,0.7,0.3,1,0.4c0.3,0.1,0.6,0.3,0.9,0.5c0.3,0.2,0.5,0.5,0.6,0.8c0.2,0.3,0.2,0.7,0.2,1.2
			c0,0.5-0.1,1-0.3,1.4c-0.2,0.4-0.5,0.8-0.8,1.1c-0.3,0.3-0.7,0.5-1.2,0.7c-0.4,0.2-0.9,0.2-1.4,0.2s-0.9,0-1.2-0.1
			c-0.3-0.1-0.6-0.2-0.8-0.4c-0.2,0.1-0.4,0.2-0.7,0.3C90.3,24,90,24,89.5,24c-0.1-0.6-0.2-1.2-0.2-1.8c0-0.7,0-1.3,0-2h1.1
			c0.2,0.6,0.3,1,0.5,1.4c0.2,0.4,0.4,0.7,0.6,0.9c0.2,0.2,0.5,0.4,0.7,0.5c0.3,0.1,0.6,0.1,1,0.1c1.2,0,1.8-0.4,1.8-1.1
			c0-0.4-0.1-0.8-0.4-1c-0.3-0.2-0.6-0.4-1-0.6c-0.4-0.2-0.9-0.3-1.3-0.4c-0.5-0.1-0.9-0.3-1.3-0.5c-0.4-0.2-0.7-0.5-1-0.9
			c-0.3-0.4-0.4-0.9-0.4-1.5c0-0.9,0.3-1.6,0.9-2.2c0.6-0.6,1.5-0.9,2.7-0.9c0.3,0,0.7,0,1,0.1c0.3,0.1,0.6,0.2,0.9,0.4
			c0.1-0.1,0.3-0.2,0.4-0.3c0.2-0.1,0.4-0.2,0.8-0.2c0.2,0.6,0.3,1.1,0.3,1.7s0,1.1,0,1.6H95.6z"/>
		<path class="st0" d="M104.7,23.8v-1c1,0,1.5-0.3,1.5-0.8v-3.4c0-1-0.1-1.8-0.4-2.3c-0.3-0.5-0.7-0.8-1.4-0.8
			c-0.7,0-1.2,0.2-1.6,0.6c-0.4,0.4-0.6,0.9-0.7,1.6v4.1c0,0.7,0.5,1,1.6,1v1h-6.2v-1c1,0,1.5-0.3,1.5-1V11.2c0-1.1-0.5-1.7-1.4-1.7
			V8.6l4.5-0.7v7.6c0.4-0.5,0.9-0.9,1.5-1.1c0.6-0.2,1.2-0.4,1.9-0.4c0.5,0,1,0.1,1.4,0.2c0.5,0.1,0.9,0.3,1.2,0.6
			c0.4,0.3,0.6,0.6,0.8,1c0.2,0.4,0.3,0.8,0.3,1.3v5c0,0.5,0.5,0.8,1.6,0.8v1H104.7z"/>
	</g>
</g>
<g>
	<path class="st1" d="M138.1,0.4l16,15.8l16-15.8C170,0.4,138.1,0.2,138.1,0.4z"/>
	<path class="st2" d="M170,31.9l-16-15.8l-16,15.8C138.1,31.9,170,32.1,170,31.9z"/>
	<path class="st3" d="M170,0.4l-16,15.8L170,32C170,32,170.2,0.4,170,0.4z"/>
	<path class="st3" d="M138.2,32l16-15.8l-16-15.8C138.2,0.4,138,32,138.2,32z"/>
</g>
<g>
	<path d="M179.3,16.4c0-4.5,2.9-7.5,7.3-7.5c4.3,0,7.2,3,7.2,7.5s-2.9,7.5-7.2,7.5C182.2,24,179.3,20.9,179.3,16.4z M192.8,16.4
		c0-4-2.5-6.7-6.2-6.7s-6.2,2.7-6.2,6.7s2.5,6.7,6.2,6.7S192.8,20.4,192.8,16.4z"/>
	<path d="M211.2,11l-5.9,12.7h-1L198.4,11l-0.7,12.7h-1L197.5,9h0.9l6.3,13.7L211.1,9h0.9l0.8,14.8h-1L211.2,11z"/>
	<path d="M229.1,23.8h-0.7l-10.6-12.8l0,12.8h-1V9.1h0.7L228.1,22V9.1h1V23.8z"/>
	<path d="M233.3,23.8V9.1h1v14.6H233.3z"/>
	<path d="M247.6,23.8h-9V9.1h8.8V10h-7.7v5.9h7.3v0.9h-7.3v6.2h7.9V23.8z"/>
	<path d="M255,17l-4.9,6.8h-1.2l5.5-7.5l-5-7.1h1.2l4.4,6.3l4.4-6.3h1.2l-5,7.1l5.5,7.6h-1.2L255,17z"/>
	<path d="M273.3,13.5c0,2.7-1.9,4.4-4.7,4.4h-4.1v5.9h-1V9.1h5.2C271.4,9.1,273.3,10.9,273.3,13.5z M272.2,13.5
		c0-2.1-1.5-3.5-3.8-3.5h-3.9V17h3.9C270.7,17,272.2,15.6,272.2,13.5z"/>
	<path d="M284.3,23.8h-8.2V9.1h1v13.8h7.2V23.8z"/>
	<path d="M284.9,16.4c0-4.5,2.9-7.5,7.3-7.5c4.3,0,7.2,3,7.2,7.5s-2.9,7.5-7.2,7.5C287.8,24,284.9,20.9,284.9,16.4z M298.3,16.4
		c0-4-2.5-6.7-6.2-6.7s-6.2,2.7-6.2,6.7s2.5,6.7,6.2,6.7S298.3,20.4,298.3,16.4z"/>
	<path d="M308.3,17.5c-0.2,0-0.3,0-0.5,0h-4.1v6.2h-1V9.1h5.2c2.9,0,4.9,1.7,4.9,4.2c0,2-1.3,3.5-3.3,4l4.3,6.4h-1.2L308.3,17.5z
		 M311.6,13.3c0-2-1.6-3.4-3.9-3.4h-4v6.7h4.1C310,16.7,311.6,15.3,311.6,13.3z"/>
	<path d="M325.3,23.8h-9V9.1h8.8V10h-7.7v5.9h7.3v0.9h-7.3v6.2h7.9V23.8z"/>
	<path d="M334.3,17.5c-0.2,0-0.3,0-0.5,0h-4.1v6.2h-1V9.1h5.2c2.9,0,4.9,1.7,4.9,4.2c0,2-1.3,3.5-3.3,4l4.3,6.4h-1.2L334.3,17.5z
		 M337.6,13.3c0-2-1.6-3.4-3.9-3.4h-4v6.7h4.1C336.1,16.7,337.6,15.3,337.6,13.3z"/>
</g>
</svg>
